# This file uses centimeters as units for non-parametric coordinates.

mtllib jauge_surchauffe.mtl
g default
v 3.728728 0.626140 5.816711
v 3.228728 0.626140 5.453440
v 2.610694 0.626140 5.453440
v 2.110694 0.626140 5.816712
v 1.919711 0.626140 6.404497
v 2.110694 0.626140 6.992282
v 2.610694 0.626140 7.355553
v 3.228728 0.626140 7.355553
v 3.728728 0.626140 6.992282
v 3.919711 0.626140 6.404497
v 3.728728 1.000000 5.816711
v 3.228728 1.000000 5.453440
v 2.610694 1.000000 5.453440
v 2.110694 1.000000 5.816712
v 1.919711 1.000000 6.404497
v 2.110694 1.000000 6.992282
v 2.610694 1.000000 7.355553
v 3.228728 1.000000 7.355553
v 3.728728 1.000000 6.992282
v 3.919711 1.000000 6.404497
v 3.478728 1.000000 7.173918
v 3.478728 1.000000 5.635076
v 3.478728 0.626140 7.173918
v 3.478728 0.626140 5.635076
v 3.378728 1.000000 7.122965
v 3.378728 1.000000 5.686028
v 3.196236 1.000000 5.553440
v 2.643186 1.000000 5.553440
v 2.195759 1.000000 5.878515
v 2.024858 1.000000 6.404497
v 2.195759 1.000000 6.930479
v 2.643186 1.000000 7.255553
v 3.196236 1.000000 7.255553
v 3.378728 0.790260 7.122965
v 3.378728 0.790260 5.686028
v 3.196236 0.790260 5.553440
v 2.643186 0.790260 5.553440
v 2.195759 0.790260 5.878515
v 2.024858 0.790260 6.404497
v 2.195759 0.790260 6.930479
v 2.643186 0.790260 7.255553
v 3.196236 0.790260 7.255553
vt 0.626409 0.064409
vt 0.548284 0.007647
vt 0.451716 0.007647
vt 0.373591 0.064409
vt 0.343750 0.156250
vt 0.373591 0.248091
vt 0.451716 0.304853
vt 0.548284 0.304853
vt 0.626409 0.248091
vt 0.656250 0.156250
vt 0.375000 0.312500
vt 0.400000 0.312500
vt 0.425000 0.312500
vt 0.450000 0.312500
vt 0.475000 0.312500
vt 0.500000 0.312500
vt 0.525000 0.312500
vt 0.550000 0.312500
vt 0.575000 0.312500
vt 0.600000 0.312500
vt 0.625000 0.312500
vt 0.375000 0.688440
vt 0.400000 0.688440
vt 0.425000 0.688440
vt 0.450000 0.688440
vt 0.475000 0.688440
vt 0.500000 0.688440
vt 0.525000 0.688440
vt 0.550000 0.688440
vt 0.575000 0.688440
vt 0.600000 0.688440
vt 0.625000 0.688440
vt 0.626409 0.751909
vt 0.548284 0.695147
vt 0.451716 0.695147
vt 0.373591 0.751909
vt 0.343750 0.843750
vt 0.373591 0.935591
vt 0.451716 0.992353
vt 0.548284 0.992353
vt 0.626409 0.935591
vt 0.656250 0.843750
vt 0.587346 0.723528
vt 0.562500 0.688440
vt 0.587346 0.963972
vt 0.387500 0.688440
vt 0.562500 0.312500
vt 0.587346 0.276472
vt 0.387500 0.312500
vt 0.587346 0.036028
vt 0.587346 0.723528
vt 0.587346 0.963972
vt 0.548284 0.992353
vt 0.451716 0.992353
vt 0.373591 0.935591
vt 0.343750 0.843750
vt 0.373591 0.751909
vt 0.451716 0.695147
vt 0.548284 0.695147
vt 0.587346 0.723528
vt 0.587346 0.963972
vt 0.548284 0.992353
vt 0.451716 0.992353
vt 0.373591 0.935591
vt 0.343750 0.843750
vt 0.373591 0.751909
vt 0.451716 0.695147
vt 0.548284 0.695147
vn 0.587785 0.000000 -0.809017
vn 0.587785 0.000000 -0.809017
vn 0.587785 0.000000 -0.809017
vn 0.587785 0.000000 -0.809017
vn -0.000000 0.000000 -1.000000
vn -0.000000 0.000000 -1.000000
vn -0.000000 0.000000 -1.000000
vn -0.000000 0.000000 -1.000000
vn -0.587785 0.000000 -0.809017
vn -0.587785 0.000000 -0.809017
vn -0.587785 0.000000 -0.809017
vn -0.587785 0.000000 -0.809017
vn -0.951057 0.000000 -0.309017
vn -0.951057 0.000000 -0.309017
vn -0.951057 0.000000 -0.309017
vn -0.951057 0.000000 -0.309017
vn -0.951057 0.000000 0.309017
vn -0.951057 0.000000 0.309017
vn -0.951057 0.000000 0.309017
vn -0.951057 0.000000 0.309017
vn -0.587785 0.000000 0.809017
vn -0.587785 0.000000 0.809017
vn -0.587785 0.000000 0.809017
vn -0.587785 0.000000 0.809017
vn 0.000000 0.000000 1.000000
vn 0.000000 0.000000 1.000000
vn 0.000000 0.000000 1.000000
vn 0.000000 0.000000 1.000000
vn 0.587785 0.000000 0.809017
vn 0.587785 0.000000 0.809017
vn 0.587785 0.000000 0.809017
vn 0.587785 0.000000 0.809017
vn 0.951057 0.000000 0.309017
vn 0.951057 0.000000 0.309017
vn 0.951057 0.000000 0.309017
vn 0.951057 0.000000 0.309017
vn 0.951057 0.000000 -0.309017
vn 0.951057 0.000000 -0.309017
vn 0.951057 0.000000 -0.309017
vn 0.951057 0.000000 -0.309017
vn 0.000000 -1.000000 -0.000000
vn 0.000000 -1.000000 -0.000000
vn 0.000000 -1.000000 -0.000000
vn 0.000000 -1.000000 -0.000000
vn 0.000000 -1.000000 -0.000000
vn 0.000000 -1.000000 -0.000000
vn 0.000000 -1.000000 -0.000000
vn 0.000000 -1.000000 -0.000000
vn 0.000000 -1.000000 -0.000000
vn 0.000000 1.000000 0.000000
vn 0.000000 1.000000 0.000000
vn 0.000000 1.000000 0.000000
vn 0.000000 1.000000 0.000000
vn 0.000000 1.000000 0.000000
vn 0.000000 1.000000 0.000000
vn 0.000000 1.000000 0.000000
vn 0.000000 1.000000 0.000000
vn 0.000000 1.000000 0.000000
vn 0.000000 1.000000 0.000000
vn 0.000000 1.000000 0.000000
vn 0.000000 1.000000 0.000000
vn 0.000000 1.000000 0.000000
vn 0.000000 1.000000 0.000000
vn 0.587785 0.000000 0.809017
vn 0.587785 0.000000 0.809017
vn 0.587785 0.000000 -0.809017
vn 0.587785 0.000000 -0.809017
vn 0.000000 -1.000000 -0.000000
vn 0.000000 -1.000000 -0.000000
vn 0.000000 -1.000000 -0.000000
vn 0.000000 1.000000 0.000000
vn 0.000000 1.000000 0.000000
vn 0.000000 1.000000 0.000000
vn 0.000000 1.000000 0.000000
vn 0.000000 1.000000 0.000000
vn 0.000000 1.000000 -0.000000
vn 0.000000 1.000000 -0.000000
vn 0.000000 1.000000 -0.000000
vn 0.000000 1.000000 0.000000
vn 0.000000 1.000000 0.000000
vn 0.000000 1.000000 0.000000
vn 0.000000 1.000000 0.000000
vn 0.000000 1.000000 -0.000000
vn 0.000000 1.000000 -0.000000
vn 0.000000 1.000000 -0.000000
vn 0.000000 1.000000 -0.000000
vn -1.000000 0.000000 0.000000
vn -1.000000 0.000000 0.000000
vn -1.000000 0.000000 0.000000
vn -1.000000 0.000000 0.000000
vn -0.587785 0.000000 0.809017
vn -0.587785 0.000000 0.809017
vn -0.587785 0.000000 0.809017
vn -0.587785 0.000000 0.809017
vn 0.000000 0.000000 1.000000
vn 0.000000 0.000000 1.000000
vn 0.000000 0.000000 1.000000
vn 0.000000 0.000000 1.000000
vn 0.587785 0.000000 0.809017
vn 0.587785 0.000000 0.809017
vn 0.587785 0.000000 0.809017
vn 0.587785 0.000000 0.809017
vn 0.951057 0.000000 0.309017
vn 0.951057 0.000000 0.309017
vn 0.951057 0.000000 0.309017
vn 0.951057 0.000000 0.309017
vn 0.951057 0.000000 -0.309017
vn 0.951057 0.000000 -0.309017
vn 0.951057 0.000000 -0.309017
vn 0.951057 0.000000 -0.309017
vn 0.587785 0.000000 -0.809017
vn 0.587785 0.000000 -0.809017
vn 0.587785 0.000000 -0.809017
vn 0.587785 0.000000 -0.809017
vn 0.000000 0.000000 -1.000000
vn 0.000000 0.000000 -1.000000
vn 0.000000 0.000000 -1.000000
vn 0.000000 0.000000 -1.000000
vn -0.587786 0.000000 -0.809017
vn -0.587786 0.000000 -0.809017
vn -0.587786 0.000000 -0.809017
vn -0.587786 0.000000 -0.809017
s 1
g pCylinder17
usemtl initialShadingGroup
f 22/46/1 24/49/2 2/12/3 12/23/4
s off
f 2/12/5 3/13/6 13/24/7 12/23/8
f 3/13/9 4/14/10 14/25/11 13/24/12
f 4/14/13 5/15/14 15/26/15 14/25/16
f 5/15/17 6/16/18 16/27/19 15/26/20
f 6/16/21 7/17/22 17/28/23 16/27/24
f 7/17/25 8/18/26 18/29/27 17/28/28
s 2
f 21/44/29 23/47/30 9/19/31 19/30/32
s off
f 9/19/33 10/20/34 20/31/35 19/30/36
f 10/20/37 1/21/38 11/32/39 20/31/40
s 3
f 24/50/41 23/48/42 8/8/43 7/7/44 6/6/45 5/5/46 4/4/47 3/3/48 2/2/49
s off
f 34/60/50 35/61/51 36/62/52 37/63/53 38/64/54 39/65/55 40/66/56 41/67/57 42/68/58
s 4
f 11/41/59 22/45/60 21/43/61 19/33/62 20/42/63
s 2
f 8/18/64 23/47/30 21/44/29 18/29/65
s 1
f 1/11/66 24/49/2 22/46/1 11/22/67
s 3
f 1/1/68 10/10/69 9/9/70 23/48/42 24/50/41
s 4
f 21/43/61 22/45/60 26/52/71 25/51/72
f 22/45/60 12/40/73 27/53/74 26/52/71
f 12/40/73 13/39/75 28/54/76 27/53/74
f 13/39/75 14/38/77 29/55/78 28/54/76
f 14/38/77 15/37/79 30/56/80 29/55/78
f 15/37/79 16/36/81 31/57/82 30/56/80
f 16/36/81 17/35/83 32/58/84 31/57/82
f 17/35/83 18/34/85 33/59/86 32/58/84
f 18/34/85 21/43/61 25/51/72 33/59/86
s off
f 25/51/87 26/52/88 35/61/89 34/60/90
f 26/52/91 27/53/92 36/62/93 35/61/94
f 27/53/95 28/54/96 37/63/97 36/62/98
f 28/54/99 29/55/100 38/64/101 37/63/102
f 29/55/103 30/56/104 39/65/105 38/64/106
f 30/56/107 31/57/108 40/66/109 39/65/110
f 31/57/111 32/58/112 41/67/113 40/66/114
f 32/58/115 33/59/116 42/68/117 41/67/118
f 33/59/119 25/51/120 34/60/121 42/68/122
g default
v 3.071000 0.689628 6.306166
v 2.946487 0.689628 6.306166
v 2.884231 0.689628 6.413997
v 2.946487 0.689628 6.521828
v 3.071000 0.689628 6.521828
v 3.133256 0.689628 6.413997
v 3.071000 0.938653 6.306166
v 2.946487 0.938653 6.306166
v 2.884231 0.938653 6.413997
v 2.946487 0.938653 6.521828
v 3.071000 0.938653 6.521828
v 3.133256 0.938653 6.413997
vt 0.578125 0.020934
vt 0.421875 0.020934
vt 0.343750 0.156250
vt 0.421875 0.291566
vt 0.578125 0.291566
vt 0.656250 0.156250
vt 0.375000 0.312500
vt 0.416667 0.312500
vt 0.458333 0.312500
vt 0.500000 0.312500
vt 0.541667 0.312500
vt 0.583333 0.312500
vt 0.625000 0.312500
vt 0.375000 0.688440
vt 0.416667 0.688440
vt 0.458333 0.688440
vt 0.500000 0.688440
vt 0.541667 0.688440
vt 0.583333 0.688440
vt 0.625000 0.688440
vt 0.578125 0.708434
vt 0.421875 0.708434
vt 0.343750 0.843750
vt 0.421875 0.979066
vt 0.578125 0.979066
vt 0.656250 0.843750
vn 0.500000 0.000000 -0.866025
vn -0.500000 0.000000 -0.866026
vn -0.500000 0.000000 -0.866026
vn 0.500000 0.000000 -0.866025
vn -1.000000 0.000000 -0.000000
vn -1.000000 0.000000 -0.000000
vn -0.500000 0.000000 0.866025
vn -0.500000 0.000000 0.866025
vn 0.500000 0.000000 0.866025
vn 0.500000 0.000000 0.866025
vn 1.000000 0.000000 0.000000
vn 1.000000 0.000000 0.000000
vn 0.000000 -1.000000 0.000000
vn 0.000000 -1.000000 0.000000
vn 0.000000 -1.000000 0.000000
vn 0.000000 -1.000000 0.000000
vn 0.000000 -1.000000 0.000000
vn 0.000000 -1.000000 0.000000
vn 0.000000 1.000000 0.000000
vn 0.000000 1.000000 0.000000
vn 0.000000 1.000000 0.000000
vn 0.000000 1.000000 0.000000
vn 0.000000 1.000000 0.000000
vn 0.000000 1.000000 0.000000
s 1
g pCylinder18
usemtl initialShadingGroup
f 43/75/123 44/76/124 50/83/125 49/82/126
f 44/76/124 45/77/127 51/84/128 50/83/125
f 45/77/127 46/78/129 52/85/130 51/84/128
f 46/78/129 47/79/131 53/86/132 52/85/130
f 47/79/131 48/80/133 54/87/134 53/86/132
f 48/80/133 43/81/123 49/88/126 54/87/134
s off
f 43/69/135 48/74/136 47/73/137 46/72/138 45/71/139 44/70/140
f 49/93/141 50/92/142 51/91/143 52/90/144 53/89/145 54/94/146
g default
v 2.148576 0.773314 6.403913
v 3.155445 0.773314 6.775185
v 3.155445 0.773314 6.032640
v 2.148576 0.889828 6.403913
v 3.155445 0.889828 6.775185
v 3.155445 0.889828 6.032640
v 2.927464 0.773314 6.691120
v 2.928966 0.773314 6.116152
v 2.927464 0.889828 6.691120
v 2.928966 0.889828 6.116152
v 2.255890 0.889828 6.403913
v 2.857345 0.889828 6.590250
v 2.858711 0.889828 6.216656
v 2.858711 0.773314 6.216656
v 2.255890 0.773314 6.403913
v 2.857345 0.773314 6.590250
vt 0.000000 0.000000
vt 1.000000 0.000000
vt 0.600000 0.800000
vt 0.000000 0.000000
vt 1.000000 0.000000
vt 0.600000 0.800000
vt 0.000000 0.000000
vt 1.000000 0.000000
vt 0.600000 0.800000
vt 0.773574 0.000000
vt 0.773574 0.000000
vt 0.465039 0.620052
vt 0.465039 0.620052
vt 0.773574 0.000000
vt 0.465039 0.620052
vt 0.000000 0.000000
vt 0.773574 0.000000
vt 0.465039 0.620052
vt 0.000000 0.000000
vt 0.465039 0.620052
vt 0.773574 0.000000
vn -0.345969 0.000000 0.938246
vn -0.345969 0.000000 0.938246
vn -0.345969 0.000000 0.938246
vn -0.345969 0.000000 0.938246
vn 1.000000 0.000000 0.000000
vn 1.000000 0.000000 0.000000
vn 1.000000 0.000000 0.000000
vn 1.000000 0.000000 0.000000
vn -0.345968 0.000000 -0.938246
vn -0.345969 0.000000 -0.938246
vn -0.345969 0.000000 -0.938246
vn -0.345968 0.000000 -0.938246
vn 0.000000 1.000000 0.000000
vn 0.000000 1.000000 0.000000
vn 0.000000 1.000000 0.000000
vn 0.000000 1.000000 0.000000
vn 0.000000 -1.000000 0.000000
vn 0.000000 -1.000000 0.000000
vn 0.000000 -1.000000 0.000000
vn 0.000000 -1.000000 0.000000
vn -0.345968 0.000000 0.938246
vn -0.345968 0.000000 0.938246
vn -0.345969 0.000000 -0.938246
vn -0.345969 0.000000 -0.938246
vn 0.000000 1.000000 0.000000
vn -0.000000 1.000000 -0.000000
vn 0.000000 1.000000 0.000000
vn -0.000000 1.000000 -0.000000
vn 0.000000 -1.000000 0.000000
vn 0.000000 -1.000000 0.000000
vn 0.000000 -1.000000 0.000000
vn 0.000000 -1.000000 0.000000
vn 0.296651 0.000000 0.954986
vn 0.296651 0.000000 0.954986
vn 0.296651 0.000000 0.954986
vn 0.296651 0.000000 0.954986
vn -0.999993 0.000000 -0.003655
vn -0.999993 0.000000 -0.003655
vn -0.999993 0.000000 -0.003655
vn -0.999993 0.000000 -0.003655
vn 0.295933 0.000000 -0.955209
vn 0.295933 0.000000 -0.955209
vn 0.295933 0.000000 -0.955209
vn 0.295933 0.000000 -0.955209
s 1
g polySurface15
usemtl initialShadingGroup
f 55/95/147 61/104/148 63/108/149 58/101/150
s off
f 56/96/151 57/97/152 60/103/153 59/102/154
s 2
f 57/97/155 62/106/156 64/109/157 60/103/158
s 3
f 64/109/159 63/108/160 59/102/161 60/103/162
s 4
f 61/105/163 62/107/164 57/100/165 56/99/166
s 1
f 63/108/149 61/104/148 56/96/167 59/102/168
s 2
f 64/109/157 62/106/156 55/95/169 58/101/170
s 3
f 58/101/171 63/108/160 66/111/172 65/110/173
f 63/108/160 64/109/159 67/112/174 66/111/172
f 64/109/159 58/101/171 65/110/173 67/112/174
s 4
f 55/98/175 62/107/164 68/114/176 69/113/177
f 62/107/164 61/105/163 70/115/178 68/114/176
f 61/105/163 55/98/175 69/113/177 70/115/178
s off
f 67/112/179 65/110/180 69/113/181 68/114/182
f 66/111/183 67/112/184 68/114/185 70/115/186
f 65/110/187 66/111/188 70/115/189 69/113/190
