# This file uses centimeters as units for non-parametric coordinates.

mtllib jauge_oxygen.mtl
g default
v -4.297651 -0.033698 -3.774774
v -2.226554 -0.033698 -3.774774
v -4.297651 0.229999 -3.774774
v -2.226554 0.229999 -3.774774
v -4.297651 0.229999 -8.736444
v -2.226554 0.229999 -8.736444
v -4.297651 -0.033698 -8.736444
v -2.226554 -0.033698 -8.736444
v -3.954024 0.229999 -4.212145
v -2.570181 0.229999 -4.212145
v -2.570181 0.229999 -8.299074
v -3.954024 0.229999 -8.299074
v -3.954024 0.363226 -4.212145
v -2.570181 0.363226 -4.212145
v -2.570181 0.363226 -8.299074
v -3.954024 0.363226 -8.299074
vt 0.375000 0.000000
vt 0.625000 0.000000
vt 0.375000 0.250000
vt 0.625000 0.250000
vt 0.375000 0.500000
vt 0.625000 0.500000
vt 0.375000 0.750000
vt 0.625000 0.750000
vt 0.375000 1.000000
vt 0.625000 1.000000
vt 0.875000 0.000000
vt 0.875000 0.250000
vt 0.125000 0.000000
vt 0.125000 0.250000
vt 0.375000 0.250000
vt 0.625000 0.250000
vt 0.625000 0.500000
vt 0.375000 0.500000
vt 0.375000 0.250000
vt 0.625000 0.250000
vt 0.625000 0.500000
vt 0.375000 0.500000
vn 0.000000 0.000000 1.000000
vn 0.000000 0.000000 1.000000
vn 0.000000 0.000000 1.000000
vn 0.000000 0.000000 1.000000
vn 0.000000 1.000000 0.000000
vn 0.000000 1.000000 0.000000
vn 0.000000 1.000000 0.000000
vn 0.000000 1.000000 0.000000
vn 0.000000 0.000000 -1.000000
vn 0.000000 0.000000 -1.000000
vn 0.000000 0.000000 -1.000000
vn 0.000000 0.000000 -1.000000
vn 0.000000 -1.000000 0.000000
vn 0.000000 -1.000000 0.000000
vn 0.000000 -1.000000 0.000000
vn 0.000000 -1.000000 0.000000
vn 1.000000 0.000000 0.000000
vn 1.000000 0.000000 0.000000
vn 1.000000 0.000000 0.000000
vn 1.000000 0.000000 0.000000
vn -1.000000 0.000000 0.000000
vn -1.000000 0.000000 0.000000
vn -1.000000 0.000000 0.000000
vn -1.000000 0.000000 0.000000
vn 0.000000 1.000000 -0.000000
vn 0.000000 1.000000 -0.000000
vn 0.000000 1.000000 -0.000000
vn 0.000000 1.000000 -0.000000
vn -0.000000 1.000000 0.000000
vn -0.000000 1.000000 0.000000
vn -0.000000 1.000000 0.000000
vn -0.000000 1.000000 0.000000
vn 0.000000 1.000000 0.000000
vn 0.000000 1.000000 0.000000
vn 0.000000 1.000000 0.000000
vn 0.000000 1.000000 0.000000
vn 0.000000 1.000000 0.000000
vn 0.000000 1.000000 0.000000
vn 0.000000 1.000000 0.000000
vn 0.000000 1.000000 0.000000
vn 0.000000 0.000000 1.000000
vn 0.000000 0.000000 1.000000
vn 0.000000 0.000000 1.000000
vn 0.000000 0.000000 1.000000
vn 1.000000 0.000000 0.000000
vn 1.000000 0.000000 0.000000
vn 1.000000 0.000000 0.000000
vn 1.000000 0.000000 0.000000
vn 0.000000 0.000000 -1.000000
vn 0.000000 0.000000 -1.000000
vn 0.000000 0.000000 -1.000000
vn 0.000000 0.000000 -1.000000
vn -1.000000 0.000000 0.000000
vn -1.000000 0.000000 0.000000
vn -1.000000 0.000000 0.000000
vn -1.000000 0.000000 0.000000
s off
g pCube6
usemtl initialShadingGroup
f 1/1/1 2/2/2 4/4/3 3/3/4
f 13/19/5 14/20/6 15/21/7 16/22/8
f 5/5/9 6/6/10 8/8/11 7/7/12
f 7/7/13 8/8/14 2/10/15 1/9/16
f 2/2/17 8/11/18 6/12/19 4/4/20
f 7/13/21 1/1/22 3/3/23 5/14/24
f 3/3/25 4/4/26 10/16/27 9/15/28
f 4/4/29 6/6/30 11/17/31 10/16/32
f 6/6/33 5/5/34 12/18/35 11/17/36
f 5/5/37 3/3/38 9/15/39 12/18/40
f 9/15/41 10/16/42 14/20/43 13/19/44
f 10/16/45 11/17/46 15/21/47 14/20/48
f 11/17/49 12/18/50 16/22/51 15/21/52
f 12/18/53 9/15/54 13/19/55 16/22/56
g default
v -3.998734 0.095996 -4.103826
v -4.148796 0.095996 -4.103826
v -4.223827 0.095996 -3.973869
v -4.148796 0.095996 -3.843911
v -3.998734 0.095996 -3.843911
v -3.923704 0.095996 -3.973869
v -3.998734 0.330446 -4.103826
v -4.148796 0.330446 -4.103826
v -4.223827 0.330446 -3.973869
v -4.148796 0.330446 -3.843911
v -3.998734 0.330446 -3.843911
v -3.923704 0.330446 -3.973869
vt 0.375000 0.312500
vt 0.416667 0.312500
vt 0.416667 0.688440
vt 0.375000 0.688440
vt 0.458333 0.312500
vt 0.458333 0.688440
vt 0.500000 0.312500
vt 0.500000 0.688440
vt 0.541667 0.312500
vt 0.541667 0.688440
vt 0.583333 0.312500
vt 0.583333 0.688440
vt 0.625000 0.312500
vt 0.625000 0.688440
vt 0.578125 0.020934
vt 0.656250 0.156250
vt 0.578125 0.291566
vt 0.421875 0.291566
vt 0.343750 0.156250
vt 0.421875 0.020934
vt 0.578125 0.979066
vt 0.421875 0.979066
vt 0.343750 0.843750
vt 0.421875 0.708434
vt 0.578125 0.708434
vt 0.656250 0.843750
vn 0.000000 0.000000 -1.000000
vn 0.000000 0.000000 -1.000000
vn 0.000000 0.000000 -1.000000
vn 0.000000 0.000000 -1.000000
vn -0.866025 0.000000 -0.500001
vn -0.866025 0.000000 -0.500001
vn -0.866025 0.000000 -0.500001
vn -0.866025 0.000000 -0.500001
vn -0.866026 0.000000 0.499999
vn -0.866026 0.000000 0.499999
vn -0.866026 0.000000 0.499999
vn -0.866026 0.000000 0.499999
vn 0.000000 0.000000 1.000000
vn 0.000000 0.000000 1.000000
vn 0.000000 0.000000 1.000000
vn 0.000000 0.000000 1.000000
vn 0.866025 0.000000 0.500000
vn 0.866025 0.000000 0.500000
vn 0.866025 0.000000 0.500000
vn 0.866025 0.000000 0.500000
vn 0.866025 0.000000 -0.500000
vn 0.866025 0.000000 -0.500000
vn 0.866025 0.000000 -0.500000
vn 0.866025 0.000000 -0.500000
vn 0.000000 -1.000000 -0.000000
vn 0.000000 -1.000000 -0.000000
vn 0.000000 -1.000000 -0.000000
vn 0.000000 -1.000000 -0.000000
vn 0.000000 -1.000000 -0.000000
vn 0.000000 -1.000000 -0.000000
vn 0.000000 1.000000 0.000000
vn 0.000000 1.000000 0.000000
vn 0.000000 1.000000 0.000000
vn 0.000000 1.000000 0.000000
vn 0.000000 1.000000 0.000000
vn 0.000000 1.000000 0.000000
s off
g polySurface12 pCylinder16
usemtl initialShadingGroup
f 17/23/57 18/24/58 24/25/59 23/26/60
f 18/24/61 19/27/62 25/28/63 24/25/64
f 19/27/65 20/29/66 26/30/67 25/28/68
f 20/29/69 21/31/70 27/32/71 26/30/72
f 21/31/73 22/33/74 28/34/75 27/32/76
f 22/33/77 17/35/78 23/36/79 28/34/80
f 17/37/81 22/38/82 21/39/83 20/40/84 19/41/85 18/42/86
f 23/43/87 24/44/88 25/45/89 26/46/90 27/47/91 28/48/92
g default
v -2.365406 0.095996 -8.654298
v -2.515468 0.095996 -8.654298
v -2.590499 0.095996 -8.524340
v -2.515468 0.095996 -8.394383
v -2.365406 0.095996 -8.394383
v -2.290375 0.095996 -8.524340
v -2.365406 0.330446 -8.654298
v -2.515468 0.330446 -8.654298
v -2.590499 0.330446 -8.524340
v -2.515468 0.330446 -8.394383
v -2.365406 0.330446 -8.394383
v -2.290375 0.330446 -8.524340
vt 0.375000 0.312500
vt 0.416667 0.312500
vt 0.416667 0.688440
vt 0.375000 0.688440
vt 0.458333 0.312500
vt 0.458333 0.688440
vt 0.500000 0.312500
vt 0.500000 0.688440
vt 0.541667 0.312500
vt 0.541667 0.688440
vt 0.583333 0.312500
vt 0.583333 0.688440
vt 0.625000 0.312500
vt 0.625000 0.688440
vt 0.578125 0.020934
vt 0.656250 0.156250
vt 0.578125 0.291566
vt 0.421875 0.291566
vt 0.343750 0.156250
vt 0.421875 0.020934
vt 0.578125 0.979066
vt 0.421875 0.979066
vt 0.343750 0.843750
vt 0.421875 0.708434
vt 0.578125 0.708434
vt 0.656250 0.843750
vn 0.000000 0.000000 -1.000000
vn 0.000000 0.000000 -1.000000
vn 0.000000 0.000000 -1.000000
vn 0.000000 0.000000 -1.000000
vn -0.866025 0.000000 -0.500001
vn -0.866025 0.000000 -0.500001
vn -0.866025 0.000000 -0.500001
vn -0.866025 0.000000 -0.500001
vn -0.866025 0.000000 0.500001
vn -0.866025 0.000000 0.500001
vn -0.866025 0.000000 0.500001
vn -0.866025 0.000000 0.500001
vn 0.000000 0.000000 1.000000
vn 0.000000 0.000000 1.000000
vn 0.000000 0.000000 1.000000
vn 0.000000 0.000000 1.000000
vn 0.866025 0.000000 0.500001
vn 0.866025 0.000000 0.500001
vn 0.866025 0.000000 0.500001
vn 0.866025 0.000000 0.500001
vn 0.866025 0.000000 -0.500001
vn 0.866025 0.000000 -0.500001
vn 0.866025 0.000000 -0.500001
vn 0.866025 0.000000 -0.500001
vn 0.000000 -1.000000 0.000000
vn 0.000000 -1.000000 0.000000
vn 0.000000 -1.000000 0.000000
vn 0.000000 -1.000000 0.000000
vn 0.000000 -1.000000 0.000000
vn 0.000000 -1.000000 0.000000
vn 0.000000 1.000000 -0.000000
vn 0.000000 1.000000 -0.000000
vn 0.000000 1.000000 -0.000000
vn 0.000000 1.000000 -0.000000
vn 0.000000 1.000000 -0.000000
vn 0.000000 1.000000 -0.000000
s off
g pCylinder16 polySurface10
usemtl initialShadingGroup
f 29/49/93 30/50/94 36/51/95 35/52/96
f 30/50/97 31/53/98 37/54/99 36/51/100
f 31/53/101 32/55/102 38/56/103 37/54/104
f 32/55/105 33/57/106 39/58/107 38/56/108
f 33/57/109 34/59/110 40/60/111 39/58/112
f 34/59/113 29/61/114 35/62/115 40/60/116
f 29/63/117 34/64/118 33/65/119 32/66/120 31/67/121 30/68/122
f 35/69/123 36/70/124 37/71/125 38/72/126 39/73/127 40/74/128
g default
v -3.978186 0.095996 -8.643041
v -4.128248 0.095996 -8.643041
v -4.203279 0.095996 -8.513084
v -4.128248 0.095996 -8.383126
v -3.978186 0.095996 -8.383126
v -3.903155 0.095996 -8.513084
v -3.978186 0.330446 -8.643041
v -4.128248 0.330446 -8.643041
v -4.203279 0.330446 -8.513084
v -4.128248 0.330446 -8.383126
v -3.978186 0.330446 -8.383126
v -3.903155 0.330446 -8.513084
vt 0.375000 0.312500
vt 0.416667 0.312500
vt 0.416667 0.688440
vt 0.375000 0.688440
vt 0.458333 0.312500
vt 0.458333 0.688440
vt 0.500000 0.312500
vt 0.500000 0.688440
vt 0.541667 0.312500
vt 0.541667 0.688440
vt 0.583333 0.312500
vt 0.583333 0.688440
vt 0.625000 0.312500
vt 0.625000 0.688440
vt 0.578125 0.020934
vt 0.656250 0.156250
vt 0.578125 0.291566
vt 0.421875 0.291566
vt 0.343750 0.156250
vt 0.421875 0.020934
vt 0.578125 0.979066
vt 0.421875 0.979066
vt 0.343750 0.843750
vt 0.421875 0.708434
vt 0.578125 0.708434
vt 0.656250 0.843750
vn 0.000000 0.000000 -1.000000
vn 0.000000 0.000000 -1.000000
vn 0.000000 0.000000 -1.000000
vn 0.000000 0.000000 -1.000000
vn -0.866025 0.000000 -0.500001
vn -0.866025 0.000000 -0.500001
vn -0.866025 0.000000 -0.500001
vn -0.866025 0.000000 -0.500001
vn -0.866026 0.000000 0.500000
vn -0.866026 0.000000 0.500000
vn -0.866026 0.000000 0.500000
vn -0.866026 0.000000 0.500000
vn 0.000000 0.000000 1.000000
vn 0.000000 0.000000 1.000000
vn 0.000000 0.000000 1.000000
vn 0.000000 0.000000 1.000000
vn 0.866025 0.000000 0.500001
vn 0.866025 0.000000 0.500001
vn 0.866025 0.000000 0.500001
vn 0.866025 0.000000 0.500001
vn 0.866025 0.000000 -0.500001
vn 0.866025 0.000000 -0.500001
vn 0.866025 0.000000 -0.500001
vn 0.866025 0.000000 -0.500001
vn 0.000000 -1.000000 -0.000000
vn 0.000000 -1.000000 -0.000000
vn 0.000000 -1.000000 -0.000000
vn 0.000000 -1.000000 -0.000000
vn 0.000000 -1.000000 -0.000000
vn 0.000000 -1.000000 -0.000000
vn 0.000000 1.000000 0.000000
vn 0.000000 1.000000 0.000000
vn 0.000000 1.000000 0.000000
vn 0.000000 1.000000 0.000000
vn 0.000000 1.000000 0.000000
vn 0.000000 1.000000 0.000000
s off
g pCylinder16 polySurface9
usemtl initialShadingGroup
f 41/75/129 42/76/130 48/77/131 47/78/132
f 42/76/133 43/79/134 49/80/135 48/77/136
f 43/79/137 44/81/138 50/82/139 49/80/140
f 44/81/141 45/83/142 51/84/143 50/82/144
f 45/83/145 46/85/146 52/86/147 51/84/148
f 46/85/149 41/87/150 47/88/151 52/86/152
f 41/89/153 46/90/154 45/91/155 44/92/156 43/93/157 42/94/158
f 47/95/159 48/96/160 49/97/161 50/98/162 51/99/163 52/100/164
g default
v -2.362945 0.095996 -4.085518
v -2.513007 0.095996 -4.085518
v -2.588038 0.095996 -3.955560
v -2.513007 0.095996 -3.825603
v -2.362945 0.095996 -3.825603
v -2.287914 0.095996 -3.955560
v -2.362945 0.330446 -4.085518
v -2.513007 0.330446 -4.085518
v -2.588038 0.330446 -3.955560
v -2.513007 0.330446 -3.825603
v -2.362945 0.330446 -3.825603
v -2.287914 0.330446 -3.955560
vt 0.375000 0.312500
vt 0.416667 0.312500
vt 0.416667 0.688440
vt 0.375000 0.688440
vt 0.458333 0.312500
vt 0.458333 0.688440
vt 0.500000 0.312500
vt 0.500000 0.688440
vt 0.541667 0.312500
vt 0.541667 0.688440
vt 0.583333 0.312500
vt 0.583333 0.688440
vt 0.625000 0.312500
vt 0.625000 0.688440
vt 0.578125 0.020934
vt 0.656250 0.156250
vt 0.578125 0.291566
vt 0.421875 0.291566
vt 0.343750 0.156250
vt 0.421875 0.020934
vt 0.578125 0.979066
vt 0.421875 0.979066
vt 0.343750 0.843750
vt 0.421875 0.708434
vt 0.578125 0.708434
vt 0.656250 0.843750
vn 0.000000 0.000000 -1.000000
vn 0.000000 0.000000 -1.000000
vn 0.000000 0.000000 -1.000000
vn 0.000000 0.000000 -1.000000
vn -0.866025 0.000000 -0.500000
vn -0.866025 0.000000 -0.500000
vn -0.866025 0.000000 -0.500000
vn -0.866025 0.000000 -0.500000
vn -0.866025 0.000000 0.500000
vn -0.866025 0.000000 0.500000
vn -0.866025 0.000000 0.500000
vn -0.866025 0.000000 0.500000
vn 0.000000 0.000000 1.000000
vn 0.000000 0.000000 1.000000
vn 0.000000 0.000000 1.000000
vn 0.000000 0.000000 1.000000
vn 0.866025 0.000000 0.500000
vn 0.866025 0.000000 0.500000
vn 0.866025 0.000000 0.500000
vn 0.866025 0.000000 0.500000
vn 0.866025 0.000000 -0.500000
vn 0.866025 0.000000 -0.500000
vn 0.866025 0.000000 -0.500000
vn 0.866025 0.000000 -0.500000
vn 0.000000 -1.000000 0.000000
vn 0.000000 -1.000000 0.000000
vn 0.000000 -1.000000 0.000000
vn 0.000000 -1.000000 0.000000
vn 0.000000 -1.000000 0.000000
vn 0.000000 -1.000000 0.000000
vn 0.000000 1.000000 -0.000000
vn 0.000000 1.000000 -0.000000
vn 0.000000 1.000000 -0.000000
vn 0.000000 1.000000 -0.000000
vn 0.000000 1.000000 -0.000000
vn 0.000000 1.000000 -0.000000
s off
g pCylinder16 polySurface11
usemtl initialShadingGroup
f 53/101/165 54/102/166 60/103/167 59/104/168
f 54/102/169 55/105/170 61/106/171 60/103/172
f 55/105/173 56/107/174 62/108/175 61/106/176
f 56/107/177 57/109/178 63/110/179 62/108/180
f 57/109/181 58/111/182 64/112/183 63/110/184
f 58/111/185 53/113/186 59/114/187 64/112/188
f 53/115/189 58/116/190 57/117/191 56/118/192 55/119/193 54/120/194
f 59/121/195 60/122/196 61/123/197 62/124/198 63/125/199 64/126/200
g default
v -3.668955 0.597368 -4.948387
v -3.828973 0.211050 -4.948387
v -2.736302 0.211050 -4.948387
v -2.896320 0.597368 -4.948387
v -3.282637 0.757386 -4.948387
v -3.639548 0.567961 -4.739314
v -3.787386 0.211050 -4.739314
v -2.777889 0.211050 -4.739314
v -2.925726 0.567961 -4.739314
v -3.282637 0.715799 -4.739314
v -3.555805 0.484218 -4.562070
v -3.668955 0.211050 -4.562070
v -2.896320 0.211050 -4.562070
v -3.009469 0.484218 -4.562070
v -3.282637 0.597368 -4.562070
v -3.430475 0.358887 -4.443639
v -3.491711 0.211050 -4.443639
v -3.073564 0.211050 -4.443639
v -3.134800 0.358887 -4.443639
v -3.282637 0.420124 -4.443639
v -3.282637 0.211050 -4.402052
v -2.896320 0.597368 -7.585355
v -2.736302 0.211050 -7.585355
v -3.828973 0.211050 -7.585355
v -3.668955 0.597368 -7.585355
v -3.282637 0.757386 -7.585355
v -2.925726 0.567961 -7.794428
v -2.777889 0.211050 -7.794428
v -3.787386 0.211050 -7.794428
v -3.639548 0.567961 -7.794428
v -3.282637 0.715799 -7.794428
v -3.009469 0.484218 -7.971672
v -2.896320 0.211050 -7.971672
v -3.668955 0.211050 -7.971672
v -3.555805 0.484218 -7.971672
v -3.282637 0.597368 -7.971672
v -3.134800 0.358887 -8.090103
v -3.073564 0.211050 -8.090103
v -3.491711 0.211050 -8.090103
v -3.430475 0.358887 -8.090103
v -3.282637 0.420124 -8.090103
v -3.282637 0.211050 -8.131691
vt 0.500000 0.500000
vt 0.125000 0.500000
vt 0.625000 0.500000
vt 0.750000 0.500000
vt 0.875000 0.500000
vt 0.000000 0.625000
vt 0.125000 0.625000
vt 0.625000 0.625000
vt 0.750000 0.625000
vt 0.875000 0.625000
vt 1.000000 0.625000
vt 0.000000 0.750000
vt 0.125000 0.750000
vt 0.625000 0.750000
vt 0.750000 0.750000
vt 0.875000 0.750000
vt 1.000000 0.750000
vt 0.000000 0.875000
vt 0.125000 0.875000
vt 0.625000 0.875000
vt 0.750000 0.875000
vt 0.875000 0.875000
vt 1.000000 0.875000
vt 0.062500 1.000000
vt 0.687500 1.000000
vt 0.812500 1.000000
vt 0.937500 1.000000
vt 0.500000 0.500000
vt 0.125000 0.500000
vt 0.125000 0.625000
vt 0.000000 0.625000
vt 0.625000 0.500000
vt 0.750000 0.500000
vt 0.750000 0.625000
vt 0.625000 0.625000
vt 0.875000 0.500000
vt 0.875000 0.625000
vt 1.000000 0.625000
vt 0.125000 0.750000
vt 0.000000 0.750000
vt 0.750000 0.750000
vt 0.625000 0.750000
vt 0.875000 0.750000
vt 1.000000 0.750000
vt 0.125000 0.875000
vt 0.000000 0.875000
vt 0.750000 0.875000
vt 0.625000 0.875000
vt 0.875000 0.875000
vt 1.000000 0.875000
vt 0.062500 1.000000
vt 0.687500 1.000000
vt 0.812500 1.000000
vt 0.937500 1.000000
vn -0.707043 0.707043 0.013469
vn -0.923808 0.382654 0.012444
vn -0.873345 0.361752 0.326197
vn -0.662410 0.662410 0.349894
vn 0.923808 0.382654 0.012444
vn 0.707043 0.707043 0.013469
vn 0.662410 0.662410 0.349894
vn 0.873345 0.361752 0.326197
vn 0.000000 0.999909 0.013469
vn -0.000000 0.936789 0.349894
vn -0.721685 0.298932 0.624349
vn -0.534760 0.534760 0.654266
vn 0.534760 0.534760 0.654266
vn 0.721684 0.298931 0.624349
vn -0.000000 0.756265 0.654265
vn -0.486060 0.201332 0.850418
vn -0.350881 0.350881 0.868197
vn 0.350881 0.350881 0.868197
vn 0.486060 0.201332 0.850419
vn 0.000000 0.496221 0.868196
vn 0.000000 0.139281 0.990253
vn 0.707043 0.707043 -0.013469
vn 0.923808 0.382654 -0.012444
vn 0.873345 0.361752 -0.326197
vn 0.662410 0.662410 -0.349894
vn -0.923808 0.382654 -0.012444
vn -0.707043 0.707043 -0.013469
vn -0.662410 0.662410 -0.349894
vn -0.873345 0.361751 -0.326197
vn 0.000000 0.999909 -0.013469
vn -0.000000 0.936789 -0.349894
vn 0.721684 0.298931 -0.624349
vn 0.534760 0.534760 -0.654266
vn -0.534760 0.534760 -0.654266
vn -0.721684 0.298931 -0.624349
vn 0.000000 0.756265 -0.654266
vn 0.486060 0.201332 -0.850418
vn 0.350881 0.350881 -0.868196
vn -0.350881 0.350881 -0.868197
vn -0.486060 0.201332 -0.850418
vn 0.000000 0.496221 -0.868196
vn -0.000000 0.139281 -0.990253
s 1
g pSphere18
usemtl initialShadingGroup
f 65/127/201 66/128/202 71/133/203 70/132/204
f 67/129/205 68/130/206 73/135/207 72/134/208
f 68/130/206 69/131/209 74/136/210 73/135/207
f 69/131/209 65/127/201 70/137/204 74/136/210
f 70/132/204 71/133/203 76/139/211 75/138/212
f 72/134/208 73/135/207 78/141/213 77/140/214
f 73/135/207 74/136/210 79/142/215 78/141/213
f 74/136/210 70/137/204 75/143/212 79/142/215
f 75/138/212 76/139/211 81/145/216 80/144/217
f 77/140/214 78/141/213 83/147/218 82/146/219
f 78/141/213 79/142/215 84/148/220 83/147/218
f 79/142/215 75/143/212 80/149/217 84/148/220
f 80/144/217 81/145/216 85/150/221
f 82/146/219 83/147/218 85/151/221
f 83/147/218 84/148/220 85/152/221
f 84/148/220 80/149/217 85/153/221
f 86/154/222 87/155/223 92/156/224 91/157/225
f 88/158/226 89/159/227 94/160/228 93/161/229
f 89/159/227 90/162/230 95/163/231 94/160/228
f 90/162/230 86/154/222 91/164/225 95/163/231
f 91/157/225 92/156/224 97/165/232 96/166/233
f 93/161/229 94/160/228 99/167/234 98/168/235
f 94/160/228 95/163/231 100/169/236 99/167/234
f 95/163/231 91/164/225 96/170/233 100/169/236
f 96/166/233 97/165/232 102/171/237 101/172/238
f 98/168/235 99/167/234 104/173/239 103/174/240
f 99/167/234 100/169/236 105/175/241 104/173/239
f 100/169/236 96/170/233 101/176/238 105/175/241
f 101/172/238 102/171/237 106/177/242
f 103/174/240 104/173/239 106/178/242
f 104/173/239 105/175/241 106/179/242
f 105/175/241 101/176/238 106/180/242
f 66/128/202 65/127/201 89/159/227 88/158/226
f 65/127/201 69/131/209 90/162/230 89/159/227
f 69/131/209 68/130/206 86/154/222 90/162/230
f 68/130/206 67/129/205 87/155/223 86/154/222
