# This file uses centimeters as units for non-parametric coordinates.

mtllib lumiere_sol.mtl
g default
v -7.867938 0.283840 -4.958970
v -8.027957 -0.102478 -4.958970
v -6.935285 -0.102478 -4.958970
v -7.095303 0.283840 -4.958970
v -7.481621 0.443858 -4.958970
v -7.838532 0.254433 -4.749897
v -7.986369 -0.102478 -4.749897
v -6.976872 -0.102478 -4.749897
v -7.124710 0.254433 -4.749897
v -7.481621 0.402270 -4.749897
v -7.754789 0.170690 -4.572653
v -7.867938 -0.102478 -4.572653
v -7.095303 -0.102478 -4.572653
v -7.208453 0.170690 -4.572653
v -7.481621 0.283840 -4.572653
v -7.629458 0.045359 -4.454222
v -7.690695 -0.102478 -4.454222
v -7.272547 -0.102478 -4.454222
v -7.333783 0.045359 -4.454222
v -7.481621 0.106596 -4.454222
v -7.481621 -0.102478 -4.412635
v -7.095303 0.283840 -6.376447
v -6.935285 -0.102478 -6.376447
v -8.027957 -0.102478 -6.376447
v -7.867938 0.283840 -6.376447
v -7.481621 0.443858 -6.376447
v -7.124710 0.254433 -6.585521
v -6.976872 -0.102478 -6.585521
v -7.986369 -0.102478 -6.585521
v -7.838532 0.254433 -6.585521
v -7.481621 0.402270 -6.585521
v -7.208453 0.170690 -6.762765
v -7.095303 -0.102478 -6.762765
v -7.867938 -0.102478 -6.762765
v -7.754789 0.170690 -6.762765
v -7.481621 0.283840 -6.762765
v -7.333783 0.045359 -6.881196
v -7.272547 -0.102478 -6.881196
v -7.690695 -0.102478 -6.881196
v -7.629458 0.045359 -6.881196
v -7.481621 0.106596 -6.881196
v -7.481621 -0.102478 -6.922783
vt 0.500000 0.500000
vt 0.125000 0.500000
vt 0.625000 0.500000
vt 0.750000 0.500000
vt 0.875000 0.500000
vt 0.000000 0.625000
vt 0.125000 0.625000
vt 0.625000 0.625000
vt 0.750000 0.625000
vt 0.875000 0.625000
vt 1.000000 0.625000
vt 0.000000 0.750000
vt 0.125000 0.750000
vt 0.625000 0.750000
vt 0.750000 0.750000
vt 0.875000 0.750000
vt 1.000000 0.750000
vt 0.000000 0.875000
vt 0.125000 0.875000
vt 0.625000 0.875000
vt 0.750000 0.875000
vt 0.875000 0.875000
vt 1.000000 0.875000
vt 0.062500 1.000000
vt 0.687500 1.000000
vt 0.812500 1.000000
vt 0.937500 1.000000
vt 0.500000 0.500000
vt 0.125000 0.500000
vt 0.125000 0.625000
vt 0.000000 0.625000
vt 0.625000 0.500000
vt 0.750000 0.500000
vt 0.750000 0.625000
vt 0.625000 0.625000
vt 0.875000 0.500000
vt 0.875000 0.625000
vt 1.000000 0.625000
vt 0.125000 0.750000
vt 0.000000 0.750000
vt 0.750000 0.750000
vt 0.625000 0.750000
vt 0.875000 0.750000
vt 1.000000 0.750000
vt 0.125000 0.875000
vt 0.000000 0.875000
vt 0.750000 0.875000
vt 0.625000 0.875000
vt 0.875000 0.875000
vt 1.000000 0.875000
vt 0.062500 1.000000
vt 0.687500 1.000000
vt 0.812500 1.000000
vt 0.937500 1.000000
vn -0.706909 0.706909 0.023673
vn -0.923658 0.382592 0.021872
vn -0.873345 0.361752 0.326197
vn -0.662410 0.662410 0.349894
vn 0.923658 0.382592 0.021872
vn 0.706909 0.706909 0.023673
vn 0.662410 0.662410 0.349894
vn 0.873345 0.361752 0.326197
vn 0.000000 0.999720 0.023673
vn -0.000000 0.936789 0.349894
vn -0.721685 0.298932 0.624349
vn -0.534760 0.534760 0.654266
vn 0.534760 0.534760 0.654266
vn 0.721684 0.298931 0.624349
vn -0.000000 0.756265 0.654265
vn -0.486060 0.201332 0.850418
vn -0.350881 0.350881 0.868197
vn 0.350881 0.350881 0.868197
vn 0.486060 0.201332 0.850419
vn 0.000000 0.496221 0.868196
vn 0.000000 0.139281 0.990253
vn 0.706909 0.706909 -0.023673
vn 0.923658 0.382592 -0.021872
vn 0.873345 0.361752 -0.326197
vn 0.662410 0.662410 -0.349894
vn -0.923658 0.382592 -0.021872
vn -0.706909 0.706909 -0.023673
vn -0.662410 0.662410 -0.349894
vn -0.873345 0.361752 -0.326197
vn 0.000000 0.999720 -0.023673
vn -0.000000 0.936789 -0.349894
vn 0.721685 0.298931 -0.624349
vn 0.534760 0.534760 -0.654266
vn -0.534760 0.534760 -0.654266
vn -0.721685 0.298932 -0.624349
vn 0.000000 0.756265 -0.654265
vn 0.486060 0.201332 -0.850418
vn 0.350881 0.350881 -0.868197
vn -0.350881 0.350881 -0.868196
vn -0.486060 0.201332 -0.850418
vn 0.000000 0.496221 -0.868196
vn 0.000000 0.139282 -0.990253
s 1
g pSphere14
usemtl initialShadingGroup
f 1/1/1 2/2/2 7/7/3 6/6/4
f 3/3/5 4/4/6 9/9/7 8/8/8
f 4/4/6 5/5/9 10/10/10 9/9/7
f 5/5/9 1/1/1 6/11/4 10/10/10
f 6/6/4 7/7/3 12/13/11 11/12/12
f 8/8/8 9/9/7 14/15/13 13/14/14
f 9/9/7 10/10/10 15/16/15 14/15/13
f 10/10/10 6/11/4 11/17/12 15/16/15
f 11/12/12 12/13/11 17/19/16 16/18/17
f 13/14/14 14/15/13 19/21/18 18/20/19
f 14/15/13 15/16/15 20/22/20 19/21/18
f 15/16/15 11/17/12 16/23/17 20/22/20
f 16/18/17 17/19/16 21/24/21
f 18/20/19 19/21/18 21/25/21
f 19/21/18 20/22/20 21/26/21
f 20/22/20 16/23/17 21/27/21
f 22/28/22 23/29/23 28/30/24 27/31/25
f 24/32/26 25/33/27 30/34/28 29/35/29
f 25/33/27 26/36/30 31/37/31 30/34/28
f 26/36/30 22/28/22 27/38/25 31/37/31
f 27/31/25 28/30/24 33/39/32 32/40/33
f 29/35/29 30/34/28 35/41/34 34/42/35
f 30/34/28 31/37/31 36/43/36 35/41/34
f 31/37/31 27/38/25 32/44/33 36/43/36
f 32/40/33 33/39/32 38/45/37 37/46/38
f 34/42/35 35/41/34 40/47/39 39/48/40
f 35/41/34 36/43/36 41/49/41 40/47/39
f 36/43/36 32/44/33 37/50/38 41/49/41
f 37/46/38 38/45/37 42/51/42
f 39/48/40 40/47/39 42/52/42
f 40/47/39 41/49/41 42/53/42
f 41/49/41 37/50/38 42/54/42
f 2/2/2 1/1/1 25/33/27 24/32/26
f 1/1/1 5/5/9 26/36/30 25/33/27
f 5/5/9 4/4/6 22/28/22 26/36/30
f 4/4/6 3/3/5 23/29/23 22/28/22
g default
v -8.115362 -0.176216 -4.766717
v -7.662989 -0.176216 -4.314344
v -7.982865 -0.176216 -4.446841
v -8.115362 0.079980 -4.766717
v -7.982865 0.079980 -4.446841
v -7.662989 0.079980 -4.314344
v -6.822738 -0.176216 -4.766717
v -6.955235 -0.176216 -4.446841
v -7.275111 -0.176216 -4.314344
v -6.822738 0.079980 -4.766717
v -7.275111 0.079980 -4.314344
v -6.955235 0.079980 -4.446841
v -7.982865 0.079980 -6.925829
v -8.115362 0.079980 -6.605953
v -7.662989 0.079980 -7.058326
v -8.115362 -0.176216 -6.605953
v -7.982865 -0.176216 -6.925829
v -7.662989 -0.176216 -7.058326
v -6.955235 0.079980 -6.925829
v -7.275111 0.079980 -7.058326
v -6.822738 0.079980 -6.605953
v -6.822738 -0.176216 -6.605953
v -7.275111 -0.176216 -7.058326
v -6.955235 -0.176216 -6.925829
vt 0.462491 0.000000
vt 0.166215 0.000000
vt 0.333785 0.250000
vt 0.666215 0.000000
vt 0.833785 0.250000
vt 0.333785 0.000000
vt 0.462491 0.250000
vt 0.537509 0.000000
vt 0.666215 0.250000
vt 0.166215 0.250000
vt 0.462491 0.750000
vt 0.537509 0.500000
vt 0.833785 0.000000
vt 0.462491 0.500000
vt 0.375000 0.458785
vt 0.375000 0.291215
vt 0.537509 0.250000
vt 0.625000 0.291215
vt 0.625000 0.458785
vt 0.625000 0.791215
vt 0.625000 0.958785
vt 0.537509 1.000000
vt 0.462491 1.000000
vt 0.375000 0.958785
vt 0.375000 0.791215
vt 0.537509 0.750000
vt 0.375000 1.000000
vt 0.375000 0.000000
vt 0.375000 0.250000
vt 0.625000 1.000000
vt 0.625000 0.000000
vt 0.625000 0.250000
vt 0.375000 0.500000
vt 0.125000 0.250000
vt 0.375000 0.750000
vt 0.125000 0.000000
vt 0.625000 0.500000
vt 0.875000 0.250000
vt 0.875000 0.000000
vt 0.625000 0.750000
vn -0.184011 0.000000 0.982924
vn -0.184011 0.000000 0.982924
vn 0.184011 0.000000 0.982924
vn 0.184011 0.000000 0.982924
vn -0.184011 0.000000 -0.982924
vn -0.184011 0.000000 -0.982924
vn 0.184011 0.000000 -0.982924
vn 0.184011 0.000000 -0.982924
vn 0.998122 0.000000 0.061251
vn 0.998122 0.000000 0.061251
vn 0.998122 0.000000 -0.061251
vn 0.998122 0.000000 -0.061251
vn -0.998122 0.000000 -0.061251
vn -0.998122 0.000000 -0.061251
vn -0.998122 0.000000 0.061251
vn -0.998122 0.000000 0.061251
vn -0.923880 0.000000 0.382683
vn -0.923880 0.000000 0.382683
vn -0.382683 0.000000 0.923880
vn -0.382683 0.000000 0.923880
vn 0.382683 0.000000 0.923880
vn 0.382683 0.000000 0.923880
vn 0.923880 0.000000 0.382683
vn 0.923880 0.000000 0.382683
vn -0.923880 0.000000 -0.382683
vn -0.923880 0.000000 -0.382683
vn -0.382684 0.000000 -0.923879
vn -0.382684 0.000000 -0.923879
vn 0.382684 0.000000 -0.923879
vn 0.382684 0.000000 -0.923879
vn 0.923880 0.000000 -0.382683
vn 0.923880 0.000000 -0.382683
vn 0.000000 1.000000 0.000000
vn 0.000000 1.000000 0.000000
vn 0.000000 1.000000 0.000000
vn 0.000000 1.000000 0.000000
vn 0.000000 1.000000 0.000000
vn 0.000000 1.000000 0.000000
vn 0.000000 1.000000 0.000000
vn 0.000000 1.000000 0.000000
vn 0.000000 1.000000 0.000000
vn 0.000000 1.000000 0.000000
vn 0.000000 1.000000 0.000000
vn 0.000000 1.000000 0.000000
vn 0.000000 -1.000000 0.000000
vn 0.000000 -1.000000 0.000000
vn 0.000000 -1.000000 0.000000
vn 0.000000 -1.000000 0.000000
vn 0.000000 -1.000000 0.000000
vn 0.000000 -1.000000 0.000000
vn 0.000000 -1.000000 0.000000
vn 0.000000 -1.000000 0.000000
vn 0.000000 -1.000000 0.000000
vn 0.000000 -1.000000 0.000000
vn 0.000000 -1.000000 0.000000
vn 0.000000 -1.000000 0.000000
s 1
g pCube21
usemtl initialShadingGroup
f 48/61/43 44/55/44 51/62/45 53/71/46
s 2
f 60/65/47 57/68/48 62/66/49 65/80/50
s 3
f 52/63/51 49/58/52 64/67/53 63/59/54
s 4
f 56/64/55 58/56/56 43/60/57 46/57/58
f 43/60/57 45/82/59 47/83/60 46/57/58
s 1
f 45/82/61 44/55/44 48/61/43 47/83/62
f 51/62/45 50/85/63 54/86/64 53/71/46
s 3
f 50/85/65 49/58/52 52/63/51 54/86/66
s 4
f 56/64/55 55/88/67 59/90/68 58/56/56
s 2
f 55/87/69 57/68/48 60/65/47 59/89/70
f 62/66/49 61/91/71 66/94/72 65/80/50
s 3
f 61/92/73 63/59/54 64/67/53 66/93/74
s off
f 61/91/75 62/66/76 57/68/77 55/87/78 56/69/79 46/70/80 47/83/81 48/61/82 53/71/83 54/86/84 52/72/85 63/73/86
f 64/74/87 49/75/88 50/84/89 51/76/90 44/77/91 45/81/92 43/78/93 58/79/94 59/89/95 60/65/96 65/80/97 66/94/98
