# This file uses centimeters as units for non-parametric coordinates.

mtllib tete_cablage.mtl
g default
v 2.503993 2.907849 -0.575673
v 2.836357 2.907849 -0.000000
v 2.503993 2.907849 0.575672
v 1.839263 2.907849 0.575673
v 1.506899 2.907849 0.000000
v 1.839263 2.907849 -0.575673
v 2.671628 2.907849 -0.866026
v 3.171628 2.907849 -0.000000
v 2.671628 2.907849 0.866025
v 1.671628 2.907849 0.866025
v 1.171628 2.907849 0.000000
v 1.671628 2.907849 -0.866025
v 2.671628 1.577472 -0.866026
v 3.171628 1.577472 -0.000000
v 2.671628 1.577472 0.866025
v 1.671628 1.577472 0.866025
v 1.171628 1.577472 0.000000
v 1.671628 1.577472 -0.866025
v 2.421628 1.577472 -0.433013
v 2.671628 1.577472 -0.000000
v 2.421628 1.577472 0.433013
v 1.921628 1.577472 0.433013
v 1.671628 1.577472 -0.000000
v 1.921628 1.577472 -0.433013
v 2.671628 0.782990 -0.866026
v 3.171628 0.782990 -0.000000
v 2.671628 0.782990 -0.000000
v 2.421628 0.782990 -0.433013
v 2.671628 0.782990 0.866025
v 1.671628 0.782990 0.866025
v 1.921628 0.782990 0.433013
v 2.421628 0.782990 0.433013
v 1.171628 0.782990 0.000000
v 1.671628 0.782990 -0.866025
v 1.921628 0.782990 -0.433013
v 1.671628 0.782990 0.000000
v 1.839263 3.258374 0.575673
v 1.506899 3.258374 0.000000
v 2.503993 3.258374 0.575672
v 2.836357 3.258374 -0.000000
v 2.503993 3.258374 -0.575673
v 1.839263 3.258374 -0.575673
vt 0.539063 0.088592
vt 0.460938 0.088592
vt 0.421875 0.156250
vt 0.460938 0.223908
vt 0.539063 0.223908
vt 0.578125 0.156250
vt 0.578125 0.020934
vt 0.421875 0.020934
vt 0.343750 0.156250
vt 0.421875 0.291566
vt 0.578125 0.291566
vt 0.656250 0.156250
vt 0.375000 0.312500
vt 0.416667 0.312500
vt 0.458333 0.312500
vt 0.500000 0.312500
vt 0.541667 0.312500
vt 0.583333 0.312500
vt 0.625000 0.312500
vt 0.375000 0.688440
vt 0.416667 0.688440
vt 0.458333 0.688440
vt 0.500000 0.688440
vt 0.541667 0.688440
vt 0.583333 0.688440
vt 0.625000 0.688440
vt 0.578125 0.708434
vt 0.421875 0.708434
vt 0.343750 0.843750
vt 0.421875 0.979066
vt 0.578125 0.979066
vt 0.656250 0.843750
vt 0.539063 0.776092
vt 0.460938 0.776092
vt 0.421875 0.843750
vt 0.460938 0.911408
vt 0.539063 0.911408
vt 0.578125 0.843750
vt 0.578125 0.979066
vt 0.421875 0.979066
vt 0.460938 0.911408
vt 0.539063 0.911408
vt 0.343750 0.843750
vt 0.421875 0.708434
vt 0.460938 0.776092
vt 0.421875 0.843750
vt 0.578125 0.708434
vt 0.656250 0.843750
vt 0.578125 0.843750
vt 0.539063 0.776092
vt 0.539063 0.223908
vt 0.460938 0.223908
vt 0.421875 0.156250
vt 0.460938 0.088592
vt 0.539063 0.088592
vt 0.578125 0.156250
vn -0.000000 1.000000 0.000000
vn -0.000000 1.000000 0.000000
vn -0.000000 1.000000 0.000000
vn -0.000000 1.000000 0.000000
vn 0.000000 1.000000 0.000000
vn 0.000000 1.000000 0.000000
vn 0.000000 1.000000 0.000000
vn 0.000000 1.000000 0.000000
vn -0.000000 1.000000 0.000000
vn -0.000000 1.000000 0.000000
vn -0.000000 1.000000 0.000000
vn -0.000000 1.000000 0.000000
vn 0.866025 0.000000 -0.500000
vn 0.866025 0.000000 -0.500000
vn 0.866025 0.000000 -0.500000
vn 0.866025 0.000000 -0.500000
vn 0.866026 0.000000 0.500000
vn 0.866026 0.000000 0.500000
vn 0.866026 0.000000 0.500000
vn 0.866026 0.000000 0.500000
vn 0.000000 0.000000 1.000000
vn 0.000000 0.000000 1.000000
vn 0.000000 0.000000 1.000000
vn 0.000000 0.000000 1.000000
vn -0.866025 0.000000 0.500000
vn -0.866025 0.000000 0.500000
vn -0.866025 0.000000 0.500000
vn -0.866025 0.000000 0.500000
vn -0.866025 0.000000 -0.500000
vn -0.866025 0.000000 -0.500000
vn -0.866025 0.000000 -0.500000
vn -0.866025 0.000000 -0.500000
vn -0.000000 0.000000 -1.000000
vn -0.000000 0.000000 -1.000000
vn -0.000000 0.000000 -1.000000
vn -0.000000 0.000000 -1.000000
vn 0.000000 -1.000000 -0.000000
vn 0.000000 -1.000000 -0.000000
vn 0.000000 -1.000000 -0.000000
vn 0.000000 -1.000000 -0.000000
vn 0.000000 -1.000000 -0.000000
vn 0.000000 -1.000000 -0.000000
vn 0.000000 -1.000000 0.000000
vn 0.000000 -1.000000 0.000000
vn -0.000000 -1.000000 0.000000
vn -0.000000 -1.000000 0.000000
vn -0.000000 -1.000000 0.000000
vn -0.000000 -1.000000 0.000000
vn 0.000000 -1.000000 0.000000
vn 0.000000 -1.000000 0.000000
vn 0.000000 -1.000000 0.000000
vn 0.000000 -1.000000 0.000000
vn 0.000000 -1.000000 0.000000
vn 0.000000 -1.000000 0.000000
vn 0.000000 -1.000000 0.000000
vn 0.000000 -1.000000 0.000000
vn -0.000000 -1.000000 -0.000000
vn -0.000000 -1.000000 -0.000000
vn 0.000000 -1.000000 0.000000
vn 0.000000 -1.000000 0.000000
vn 0.000000 1.000000 -0.000000
vn 0.000000 1.000000 -0.000000
vn 0.000000 1.000000 -0.000000
vn 0.000000 1.000000 -0.000000
vn 0.000000 1.000000 -0.000000
vn 0.000000 1.000000 -0.000000
vn 0.866025 0.000000 -0.500000
vn 0.866025 0.000000 -0.500000
vn 0.000000 0.000000 1.000000
vn 0.000000 0.000000 1.000000
vn 0.000000 0.000000 1.000000
vn 0.000000 0.000000 1.000000
vn -0.866025 0.000000 0.500000
vn -0.866025 0.000000 0.500000
vn -0.866025 0.000000 0.500000
vn -0.866025 0.000000 0.500000
vn -0.866026 0.000000 -0.500000
vn -0.866026 0.000000 -0.500000
vn -0.866026 0.000000 -0.500000
vn -0.866026 0.000000 -0.500000
vn 0.000000 0.000000 1.000000
vn 0.000000 0.000000 1.000000
vn -0.866025 0.000000 -0.500000
vn -0.866025 0.000000 -0.500000
vn -0.866025 0.000000 -0.500000
vn -0.866025 0.000000 -0.500000
vn -0.000000 0.000000 -1.000000
vn -0.000000 0.000000 -1.000000
vn -0.000000 0.000000 -1.000000
vn -0.000000 0.000000 -1.000000
vn 0.866025 0.000000 -0.500000
vn 0.866025 0.000000 -0.500000
vn 0.866025 0.000000 -0.500000
vn 0.866025 0.000000 -0.500000
vn -0.866025 0.000000 -0.500000
vn -0.866025 0.000000 -0.500000
vn 0.866025 -0.000000 -0.500000
vn 0.866025 -0.000000 -0.500000
vn 0.866025 -0.000000 -0.500000
vn 0.866025 -0.000000 -0.500000
vn 0.866025 0.000000 0.500000
vn 0.866025 0.000000 0.500000
vn 0.866025 0.000000 0.500000
vn 0.866025 0.000000 0.500000
vn 0.000000 -0.000000 1.000000
vn 0.000000 -0.000000 1.000000
vn 0.000000 -0.000000 1.000000
vn 0.000000 -0.000000 1.000000
vn -0.866025 0.000000 0.500000
vn -0.866025 0.000000 0.500000
vn -0.866025 0.000000 0.500000
vn -0.866025 0.000000 0.500000
vn 0.000000 0.000000 1.000000
vn 0.000000 0.000000 1.000000
vn 0.000000 0.000000 1.000000
vn 0.000000 0.000000 1.000000
vn 0.866026 -0.000000 0.500000
vn 0.866026 -0.000000 0.500000
vn 0.866026 -0.000000 0.500000
vn 0.866026 -0.000000 0.500000
vn 0.866025 0.000000 -0.500000
vn 0.866025 0.000000 -0.500000
vn 0.866025 0.000000 -0.500000
vn 0.866025 0.000000 -0.500000
vn -0.000000 0.000000 -1.000000
vn -0.000000 0.000000 -1.000000
vn -0.000000 0.000000 -1.000000
vn -0.000000 0.000000 -1.000000
vn -0.866025 -0.000000 -0.500000
vn -0.866025 -0.000000 -0.500000
vn -0.866025 -0.000000 -0.500000
vn -0.866025 -0.000000 -0.500000
s 1
g pCylinder19
usemtl initialShadingGroup
f 1/1/1 2/2/2 8/8/3 7/7/4
f 2/2/2 3/3/5 9/9/6 8/8/3
f 3/3/5 4/4/7 10/10/8 9/9/6
f 4/4/7 5/5/9 11/11/10 10/10/8
f 5/5/9 6/6/11 12/12/12 11/11/10
f 6/6/11 1/1/1 7/7/4 12/12/12
s 2
f 7/13/13 8/14/14 14/21/15 13/20/16
s off
f 8/14/17 9/15/18 15/22/19 14/21/20
s 3
f 9/15/21 10/16/22 16/23/23 15/22/24
s off
f 10/16/25 11/17/26 17/24/27 16/23/28
s 4
f 11/17/29 12/18/30 18/25/31 17/24/32
s off
f 12/18/33 7/19/34 13/26/35 18/25/36
f 25/39/37 26/40/38 27/41/39 28/42/40
s 5
f 14/30/41 15/29/42 21/35/43 20/36/44
s off
f 29/43/45 30/44/46 31/45/47 32/46/48
s 5
f 16/28/49 17/27/50 23/33/51 22/34/52
s off
f 33/47/53 34/48/54 35/49/55 36/50/56
s 5
f 18/32/57 13/31/58 19/37/59 24/38/60
s off
f 38/51/61 37/52/62 39/53/63 40/54/64 41/55/65 42/56/66
s 5
f 24/38/60 19/37/59 20/36/44 21/35/43 22/34/52 23/33/51
s 2
f 13/31/16 14/30/15 26/40/67 25/39/68
s off
f 14/30/69 20/36/70 27/41/71 26/40/72
f 20/36/73 19/37/74 28/42/75 27/41/76
f 19/37/77 13/31/78 25/39/79 28/42/80
s 3
f 15/29/24 16/28/23 30/44/81 29/43/82
s off
f 16/28/83 22/34/84 31/45/85 30/44/86
f 22/34/87 21/35/88 32/46/89 31/45/90
f 21/35/91 15/29/92 29/43/93 32/46/94
s 4
f 17/27/32 18/32/31 34/48/95 33/47/96
s off
f 18/32/97 24/38/98 35/49/99 34/48/100
f 24/38/101 23/33/102 36/50/103 35/49/104
f 23/33/105 17/27/106 33/47/107 36/50/108
f 5/5/109 4/4/110 37/52/111 38/51/112
f 4/4/113 3/3/114 39/53/115 37/52/116
f 3/3/117 2/2/118 40/54/119 39/53/120
f 2/2/121 1/1/122 41/55/123 40/54/124
f 1/1/125 6/6/126 42/56/127 41/55/128
f 6/6/129 5/5/130 38/51/131 42/56/132
g default
v 2.503993 -0.854425 -0.575673
v 1.839263 -0.854425 -0.575673
v 1.506899 -0.854425 -0.000000
v 1.839263 -0.854425 0.575673
v 2.503993 -0.854425 0.575673
v 2.836357 -0.854425 0.000000
v 2.671628 -0.665189 -0.866025
v 1.671628 -0.665189 -0.866026
v 1.171628 -0.665189 -0.000000
v 1.671628 -0.665189 0.866025
v 2.671628 -0.665189 0.866025
v 3.171628 -0.665189 0.000000
v 2.671628 0.665189 -0.866025
v 1.671628 0.665189 -0.866026
v 1.171628 0.665189 -0.000000
v 1.671628 0.665189 0.866025
v 2.671628 0.665189 0.866025
v 3.171628 0.665189 0.000000
v 2.421628 0.665189 -0.433013
v 1.921628 0.665189 -0.433013
v 1.671628 0.665189 -0.000000
v 1.921628 0.665189 0.433013
v 2.421628 0.665189 0.433013
v 2.671628 0.665189 0.000000
v 2.671628 1.459670 -0.866025
v 1.671628 1.459670 -0.866026
v 1.921628 1.459670 -0.433013
v 2.421628 1.459670 -0.433013
v 1.171628 1.459670 -0.000000
v 1.671628 1.459670 0.866025
v 1.921628 1.459670 0.433013
v 1.671628 1.459670 -0.000000
v 2.671628 1.459670 0.866025
v 3.171628 1.459670 0.000000
v 2.671628 1.459670 0.000000
v 2.421628 1.459670 0.433013
v 1.839263 -1.204951 0.575673
v 2.503993 -1.204951 0.575673
v 1.506899 -1.204951 -0.000000
v 1.839263 -1.204951 -0.575673
v 2.503993 -1.204951 -0.575673
v 2.836357 -1.204951 0.000000
vt 0.539063 0.088592
vt 0.460938 0.088592
vt 0.421875 0.156250
vt 0.460938 0.223908
vt 0.539063 0.223908
vt 0.578125 0.156250
vt 0.578125 0.020934
vt 0.421875 0.020934
vt 0.343750 0.156250
vt 0.421875 0.291566
vt 0.578125 0.291566
vt 0.656250 0.156250
vt 0.375000 0.312500
vt 0.416667 0.312500
vt 0.458333 0.312500
vt 0.500000 0.312500
vt 0.541667 0.312500
vt 0.583333 0.312500
vt 0.625000 0.312500
vt 0.375000 0.688440
vt 0.416667 0.688440
vt 0.458333 0.688440
vt 0.500000 0.688440
vt 0.541667 0.688440
vt 0.583333 0.688440
vt 0.625000 0.688440
vt 0.578125 0.708434
vt 0.421875 0.708434
vt 0.343750 0.843750
vt 0.421875 0.979066
vt 0.578125 0.979066
vt 0.656250 0.843750
vt 0.539063 0.776092
vt 0.460938 0.776092
vt 0.421875 0.843750
vt 0.460938 0.911408
vt 0.539063 0.911408
vt 0.578125 0.843750
vt 0.578125 0.979066
vt 0.421875 0.979066
vt 0.460938 0.911408
vt 0.539063 0.911408
vt 0.343750 0.843750
vt 0.421875 0.708434
vt 0.460938 0.776092
vt 0.421875 0.843750
vt 0.578125 0.708434
vt 0.656250 0.843750
vt 0.578125 0.843750
vt 0.539063 0.776092
vt 0.539063 0.223908
vt 0.460938 0.223908
vt 0.421875 0.156250
vt 0.460938 0.088592
vt 0.539063 0.088592
vt 0.578125 0.156250
vn 0.245769 -0.870856 -0.425684
vn -0.245769 -0.870856 -0.425684
vn -0.245769 -0.870856 -0.425684
vn 0.245769 -0.870857 -0.425684
vn -0.491537 -0.870856 -0.000000
vn -0.491537 -0.870856 -0.000000
vn -0.245769 -0.870856 0.425684
vn -0.245769 -0.870857 0.425684
vn 0.245769 -0.870856 0.425684
vn 0.245769 -0.870857 0.425684
vn 0.491537 -0.870856 0.000000
vn 0.491537 -0.870856 0.000000
vn 0.000000 0.000000 -1.000000
vn 0.000000 0.000000 -1.000000
vn 0.000000 0.000000 -1.000000
vn 0.000000 0.000000 -1.000000
vn -0.866025 0.000000 -0.500000
vn -0.866025 0.000000 -0.500000
vn -0.866025 0.000000 -0.500000
vn -0.866025 0.000000 -0.500000
vn -0.866026 0.000000 0.500000
vn -0.866026 0.000000 0.500000
vn -0.866026 0.000000 0.500000
vn -0.866026 0.000000 0.500000
vn -0.000000 0.000000 1.000000
vn -0.000000 0.000000 1.000000
vn -0.000000 0.000000 1.000000
vn -0.000000 0.000000 1.000000
vn 0.866025 0.000000 0.500000
vn 0.866025 0.000000 0.500000
vn 0.866025 0.000000 0.500000
vn 0.866025 0.000000 0.500000
vn 0.866025 0.000000 -0.500000
vn 0.866025 0.000000 -0.500000
vn 0.866025 0.000000 -0.500000
vn 0.866026 0.000000 -0.500000
vn 0.000000 1.000000 0.000000
vn 0.000000 1.000000 0.000000
vn 0.000000 1.000000 0.000000
vn 0.000000 1.000000 0.000000
vn 0.000000 1.000000 0.000000
vn 0.000000 1.000000 0.000000
vn -0.000000 1.000000 0.000000
vn -0.000000 1.000000 0.000000
vn 0.000000 1.000000 0.000000
vn 0.000000 1.000000 0.000000
vn 0.000000 1.000000 0.000000
vn 0.000000 1.000000 0.000000
vn 0.000000 1.000000 -0.000000
vn 0.000000 1.000000 -0.000000
vn -0.000000 1.000000 -0.000000
vn -0.000000 1.000000 -0.000000
vn 0.000000 1.000000 0.000000
vn 0.000000 1.000000 0.000000
vn 0.000000 1.000000 0.000000
vn 0.000000 1.000000 0.000000
vn 0.000000 1.000000 -0.000000
vn 0.000000 1.000000 -0.000000
vn -0.000000 1.000000 -0.000000
vn -0.000000 1.000000 -0.000000
vn 0.000000 -1.000000 0.000000
vn 0.000000 -1.000000 0.000000
vn 0.000000 -1.000000 0.000000
vn 0.000000 -1.000000 0.000000
vn 0.000000 -1.000000 0.000000
vn 0.000000 -1.000000 0.000000
vn 0.000000 0.000000 -1.000000
vn 0.000000 0.000000 -1.000000
vn -0.866026 0.000000 0.500000
vn -0.866026 0.000000 0.500000
vn -0.866026 0.000000 0.500000
vn -0.866026 0.000000 0.500000
vn -0.000000 0.000000 1.000000
vn -0.000000 0.000000 1.000000
vn -0.000000 0.000000 1.000000
vn -0.000000 0.000000 1.000000
vn 0.866025 0.000000 0.500000
vn 0.866025 0.000000 0.500000
vn 0.866025 0.000000 0.500000
vn 0.866025 0.000000 0.500000
vn -0.866026 0.000000 0.500000
vn -0.866026 0.000000 0.500000
vn 0.866025 0.000000 0.500000
vn 0.866025 0.000000 0.500000
vn 0.866025 0.000000 0.500000
vn 0.866025 0.000000 0.500000
vn 0.866026 0.000000 -0.500000
vn 0.866026 0.000000 -0.500000
vn 0.866026 0.000000 -0.500000
vn 0.866026 0.000000 -0.500000
vn 0.000000 0.000000 -1.000000
vn 0.000000 0.000000 -1.000000
vn 0.000000 0.000000 -1.000000
vn 0.000000 0.000000 -1.000000
vn 0.866025 0.000000 0.500000
vn 0.866025 0.000000 0.500000
vn 0.000000 0.000000 -1.000000
vn 0.000000 0.000000 -1.000000
vn 0.000000 0.000000 -1.000000
vn 0.000000 0.000000 -1.000000
vn -0.866026 0.000000 -0.500000
vn -0.866026 0.000000 -0.500000
vn -0.866025 0.000000 -0.500000
vn -0.866025 0.000000 -0.500000
vn -0.866025 -0.000000 0.500000
vn -0.866025 -0.000000 0.500000
vn -0.866025 -0.000000 0.500000
vn -0.866025 -0.000000 0.500000
vn 0.000000 0.000000 1.000000
vn 0.000000 0.000000 1.000000
vn 0.000000 0.000000 1.000000
vn 0.000000 0.000000 1.000000
vn -0.866026 0.000000 0.500000
vn -0.866026 0.000000 0.500000
vn -0.866026 0.000000 0.500000
vn -0.866026 0.000000 0.500000
vn -0.866025 0.000000 -0.500000
vn -0.866025 0.000000 -0.500000
vn -0.866025 0.000000 -0.500000
vn -0.866025 0.000000 -0.500000
vn 0.000000 0.000000 -1.000000
vn 0.000000 0.000000 -1.000000
vn 0.000000 0.000000 -1.000000
vn 0.000000 0.000000 -1.000000
vn 0.866026 0.000000 -0.500000
vn 0.866026 0.000000 -0.500000
vn 0.866026 0.000000 -0.500000
vn 0.866026 0.000000 -0.500000
vn 0.866026 -0.000000 0.500000
vn 0.866026 -0.000000 0.500000
vn 0.866026 -0.000000 0.500000
vn 0.866026 -0.000000 0.500000
s 1
g pCylinder20
usemtl initialShadingGroup
f 43/57/133 44/58/134 50/64/135 49/63/136
f 44/58/134 45/59/137 51/65/138 50/64/135
f 45/59/137 46/60/139 52/66/140 51/65/138
f 46/60/139 47/61/141 53/67/142 52/66/140
f 47/61/141 48/62/143 54/68/144 53/67/142
f 48/62/143 43/57/133 49/63/136 54/68/144
s 2
f 49/69/145 50/70/146 56/77/147 55/76/148
s off
f 50/70/149 51/71/150 57/78/151 56/77/152
s 3
f 51/71/153 52/72/154 58/79/155 57/78/156
s off
f 52/72/157 53/73/158 59/80/159 58/79/160
s 4
f 53/73/161 54/74/162 60/81/163 59/80/164
s off
f 54/74/165 49/75/166 55/82/167 60/81/168
f 67/95/169 68/96/170 69/97/171 70/98/172
s 5
f 56/86/173 57/85/174 63/91/175 62/92/176
s off
f 71/99/177 72/100/178 73/101/179 74/102/180
s 5
f 58/84/181 59/83/182 65/89/183 64/90/184
s off
f 75/103/185 76/104/186 77/105/187 78/106/188
s 5
f 60/88/189 55/87/190 61/93/191 66/94/192
s off
f 80/107/193 79/108/194 81/109/195 82/110/196 83/111/197 84/112/198
s 5
f 66/94/192 61/93/191 62/92/176 63/91/175 64/90/184 65/89/183
s 2
f 55/87/148 56/86/147 68/96/199 67/95/200
s off
f 56/86/201 62/92/202 69/97/203 68/96/204
f 62/92/205 61/93/206 70/98/207 69/97/208
f 61/93/209 55/87/210 67/95/211 70/98/212
s 3
f 57/85/156 58/84/155 72/100/213 71/99/214
s off
f 58/84/215 64/90/216 73/101/217 72/100/218
f 64/90/219 63/91/220 74/102/221 73/101/222
f 63/91/223 57/85/224 71/99/225 74/102/226
s 4
f 59/83/164 60/88/163 76/104/227 75/103/228
s off
f 60/88/229 66/94/230 77/105/231 76/104/232
f 66/94/233 65/89/234 78/106/235 77/105/236
f 65/89/237 59/83/238 75/103/239 78/106/240
f 47/61/241 46/60/242 79/108/243 80/107/244
f 46/60/245 45/59/246 81/109/247 79/108/248
f 45/59/249 44/58/250 82/110/251 81/109/252
f 44/58/253 43/57/254 83/111/255 82/110/256
f 43/57/257 48/62/258 84/112/259 83/111/260
f 48/62/261 47/61/262 80/107/263 84/112/264
